<?xml version="1.0" encoding="UTF-8" standalone="no"?>
<svg width="13px" height="12px" viewBox="0 0 13 12" version="1.1" xmlns="http://www.w3.org/2000/svg" xmlns:xlink="http://www.w3.org/1999/xlink">
    <!-- Generator: Sketch 42 (36781) - http://www.bohemiancoding.com/sketch -->
    <title>Fill 1</title>
    <desc>Created with Sketch.</desc>
    <defs></defs>
    <g id="Page-1" stroke="none" stroke-width="1" fill="none" fill-rule="evenodd">
        <g id="iPhone-SE" transform="translate(-203.000000, -573.000000)" fill="#979797">
            <g id="Karte" transform="translate(21.000000, 373.000000)">
                <g id="Group-2" transform="translate(12.000000, 198.000000)">
                    <g id="Page-1" transform="translate(170.000000, 2.000000)">
                        <path d="M12.9990357,12 L0.003595672,12 C0.003595672,11.8273834 -0.00549772284,11.6576552 0.00523753496,11.4891829 C0.0400008256,10.9433904 0.143311895,10.4128565 0.37222548,9.91039078 C0.603033523,9.40384359 0.950003369,9.01170435 1.44360421,8.73720688 C2.15497291,8.34161405 2.92093355,8.08708461 3.68679947,7.82753176 C4.02931734,7.71139701 4.37006706,7.58703643 4.70219699,7.44462302 C4.95371776,7.33677688 5.15787711,6.92218932 5.11910388,6.65519555 C5.11420987,6.62166435 5.09223416,6.58841572 5.07161615,6.55971954 C4.43662565,5.67695101 4.10149617,4.67754538 3.9284375,3.61886363 C3.83020989,3.0178765 3.80675019,2.41356136 3.92035448,1.80927762 C4.10989493,0.800955458 4.77996446,0.16863486 5.80331869,0.0434579874 C6.2805009,-0.0149390489 6.75793571,-0.0217520364 7.23262355,0.0682610297 C8.25130479,0.261410797 8.86476162,0.898095474 9.00438312,1.92478444 C9.17494742,3.17875091 8.91297556,4.36888879 8.42284789,5.51635916 C8.28812041,5.83173455 8.09314918,6.1214592 7.93183615,6.42606568 C7.89735702,6.49111872 7.86900331,6.57058264 7.8717187,6.64213471 C7.8886741,7.08843249 8.06915272,7.42032231 8.52356987,7.57406978 C9.14994059,7.78602591 9.77694279,7.99842158 10.3926414,8.23854014 C10.7921824,8.39439116 11.1765047,8.59137127 11.5597218,8.78533734 C12.1322268,9.07515618 12.4946996,9.55112342 12.714804,10.140023 C12.9372764,10.7352018 13.0094236,11.3538023 12.9990357,12" id="Fill-1"></path>
                    </g>
                </g>
            </g>
        </g>
    </g>
</svg>