<?xml version="1.0" encoding="UTF-8" standalone="no"?>
<svg width="28px" height="28px" viewBox="0 0 28 28" version="1.1" xmlns="http://www.w3.org/2000/svg" xmlns:xlink="http://www.w3.org/1999/xlink">
    <!-- Generator: Sketch 42 (36781) - http://www.bohemiancoding.com/sketch -->
    <title>Combined Shape</title>
    <desc>Created with Sketch.</desc>
    <defs></defs>
    <g id="Page-1" stroke="none" stroke-width="1" fill="none" fill-rule="evenodd">
        <g id="iPhone-SE" transform="translate(-298.000000, -577.000000)" fill="#C8421B">
            <g id="Karte" transform="translate(21.000000, 373.000000)">
                <g id="Group" transform="translate(277.000000, 204.000000)">
                    <path d="M10.4559183,17.3511675 C9.48891536,19.029881 7.6764344,20.16 5.6,20.16 C2.5072054,20.16 0,17.6527946 0,14.56 C0,11.4672054 2.5072054,8.96 5.6,8.96 C7.52175984,8.96 9.21742563,9.92802369 10.2259869,11.4030606 L17.1411155,7.52903903 C16.92045,6.92764827 16.8,6.27789044 16.8,5.6 C16.8,2.5072054 19.3072054,0 22.4,0 C25.4927946,0 28,2.5072054 28,5.6 C28,8.6927946 25.4927946,11.2 22.4,11.2 C20.791602,11.2 19.3415759,10.5219296 18.3201892,9.43605639 L11.0965187,13.4829306 C11.1644235,13.831479 11.2,14.1915849 11.2,14.56 C11.2,14.7623592 11.1892667,14.9622115 11.1683383,15.1590187 L17.7804295,19.2336968 C18.7897569,17.7639282 20.4823097,16.8 22.4,16.8 C25.4927946,16.8 28,19.3072054 28,22.4 C28,25.4927946 25.4927946,28 22.4,28 C19.3072054,28 16.8,25.4927946 16.8,22.4 C16.8,22.0320646 16.8354839,21.6724168 16.9032162,21.3242922 L10.4559183,17.3511675 L10.4559183,17.3511675 Z" id="Combined-Shape"></path>
                </g>
            </g>
        </g>
    </g>
</svg>
