<?xml version="1.0" encoding="UTF-8" standalone="no"?>
<svg width="8px" height="12px" viewBox="0 0 8 12" version="1.1" xmlns="http://www.w3.org/2000/svg" xmlns:xlink="http://www.w3.org/1999/xlink">
    <!-- Generator: Sketch 42 (36781) - http://www.bohemiancoding.com/sketch -->
    <title>Page 1</title>
    <desc>Created with Sketch.</desc>
    <defs></defs>
    <g id="Page-1" stroke="none" stroke-width="1" fill="none" fill-rule="evenodd">
        <g id="iPhone-SE" transform="translate(-34.000000, -595.000000)" fill="#979797">
            <g id="Karte" transform="translate(21.000000, 373.000000)">
                <g id="Group-2" transform="translate(12.000000, 198.000000)">
                    <g id="Page-1" transform="translate(1.000000, 24.000000)">
                        <path d="M3.98446038,11.9985208 C3.26354222,11.9986761 2.542588,11.9996854 1.82166984,11.9980938 C1.59067751,11.9975892 1.38831135,11.9340799 1.25217477,11.7065567 C1.13738164,11.5147866 1.13063971,11.3030631 1.20660363,11.1163396 C1.29208558,10.9063242 1.46387869,10.7583429 1.69443838,10.7548103 C2.19903783,10.7470851 2.70374544,10.7510059 3.20838095,10.7498802 C3.43234292,10.7493755 3.44308675,10.7376907 3.44391597,10.4988322 C3.4442044,10.4147484 3.4621228,10.3241428 3.43861616,10.2485217 C3.41813799,10.1826056 3.35810955,10.0950668 3.30302038,10.0828386 C2.66426728,9.94145667 2.08002649,9.67720991 1.56486347,9.24083591 C0.999406358,8.76183771 0.574376141,8.17577435 0.305780406,7.4501536 C0.0842700441,6.8517067 -0.0115951987,6.2381977 0.00250157073,5.59848529 C0.00931561018,5.28815936 0.0194104834,4.97647474 0.000915233505,4.66727459 C-0.0191663537,4.3314052 0.295036576,3.99980599 0.567489995,4.00000009 C0.878339985,4.00019418 1.14751257,4.28854807 1.15548031,4.65085379 C1.16589966,5.12278678 1.15483135,5.59565144 1.17603059,6.06688567 C1.22250306,7.09949384 1.69155413,7.87138786 2.47495235,8.44110806 C3.11085726,8.90356901 3.82860275,9.00613106 4.5499896,8.85915909 C5.4955908,8.66641851 6.18243877,8.058189 6.59665305,7.10830595 C6.78081238,6.6861012 6.83853342,6.24130329 6.83929054,5.78210321 C6.83983133,5.41339222 6.83860553,5.04456477 6.84559983,4.67600906 C6.85089964,4.39759305 6.96262826,4.19794253 7.20295835,4.05900627 C7.56572483,3.84914613 8.00330153,4.25395958 7.99670381,4.62352461 C7.98924081,5.04382719 8.00950267,5.46498381 7.99396377,5.88482055 C7.93191635,7.56381814 7.21792039,8.82911252 5.85550908,9.64079689 C5.50849782,9.84751262 5.09734805,9.92767562 4.72030453,10.0793836 C4.65375048,10.1061693 4.56466322,10.1979783 4.56318504,10.2617981 C4.55009776,10.8308196 4.51390043,10.7468134 4.96716024,10.7496084 C5.39972556,10.752287 5.8325072,10.7595851 6.26474804,10.747551 C6.47263032,10.7418056 6.74731903,10.9397093 6.81203438,11.1643986 C6.89063018,11.4375739 6.80929434,11.7386607 6.59106481,11.8759277 C6.46873658,11.9528687 6.30891311,11.9908733 6.16520538,11.9930861 C5.43844661,12.0044603 4.71139941,11.9983267 3.98446038,11.9985208" id="Fill-4"></path>
                        <path d="M5.99770187,4.00327963 C5.99770187,4.59264631 5.9954532,5.18201299 5.99820861,5.77134359 C6.00254759,6.70479619 5.39528051,7.56448774 4.69097231,7.8523868 C4.35854949,7.98828901 4.01979238,8.03736681 3.68635607,7.97002918 C3.03278543,7.83806041 2.53256762,7.42706989 2.21930598,6.74986838 C2.06864522,6.42418663 1.99795469,6.07497641 2.00004501,5.70162424 C2.00672767,4.52296305 1.99450251,3.34408534 2.00770948,2.1655685 C2.01512058,1.50381206 2.27343238,0.956847161 2.71841529,0.542825368 C3.30180215,4.65146007e-05 3.96487421,-0.143433887 4.67922223,0.147424271 C5.25361442,0.381301656 5.64874658,0.835487858 5.87237821,1.48656266 C5.9678991,1.76450181 6.00254759,2.04763743 5.99985552,2.34347554 C5.9947881,2.89668343 5.99839864,3.44999957 5.99839864,4.00327963 L5.99770187,4.00327963 Z" id="Fill-1"></path>
                    </g>
                </g>
            </g>
        </g>
    </g>
</svg>