<?xml version="1.0" encoding="UTF-8" standalone="no"?>
<svg width="16px" height="15px" viewBox="0 0 16 15" version="1.1" xmlns="http://www.w3.org/2000/svg" xmlns:xlink="http://www.w3.org/1999/xlink">
    <!-- Generator: Sketch 42 (36781) - http://www.bohemiancoding.com/sketch -->
    <title>Fill 1</title>
    <desc>Created with Sketch.</desc>
    <defs></defs>
    <g id="Page-1" stroke="none" stroke-width="1" fill="none" fill-rule="evenodd">
        <g id="iPhone-SE" transform="translate(-256.000000, -294.000000)" stroke="#979797" fill="#979797">
            <path d="M266.333417,302.640913 C265.984298,304.392175 265.635839,306.143564 265.286719,307.894827 C265.222579,308.216597 265.005233,308.411535 264.709113,308.415626 C264.408995,308.419812 264.187715,308.23847 264.11577,307.91585 C263.63601,305.764389 263.158044,303.612518 262.680078,301.460679 C262.446209,300.40775 262.21363,299.354538 261.980076,298.301545 C261.971044,298.260852 261.9577,298.221134 261.936771,298.146923 C261.898154,298.284708 261.865864,298.391807 261.838106,298.500103 C261.437876,300.062061 261.03818,301.624145 260.638454,303.186261 C260.550867,303.528614 260.347904,303.68909 259.996487,303.689436 C259.199394,303.690223 258.40227,303.691544 257.605177,303.688775 C257.321519,303.687799 257.098886,303.520934 257.024486,303.267931 C256.953076,303.025187 257.039687,302.746596 257.260401,302.621337 C257.376879,302.555214 257.525867,302.520217 257.661008,302.517794 C258.258663,302.507031 258.856632,302.51043 259.454412,302.515811 C259.564533,302.516818 259.605887,302.482199 259.63311,302.375226 C260.215847,300.087207 260.802832,297.800227 261.389251,295.513184 C261.476051,295.174576 261.675899,294.999592 261.972901,295.000001 C262.277928,295.000378 262.487406,295.179675 262.564072,295.523003 C263.022934,297.577248 263.479248,299.632058 263.936348,301.68668 C264.167132,302.724219 264.397697,303.76179 264.62867,304.799298 C264.635185,304.82863 264.645067,304.857207 264.682487,304.888742 C264.736682,304.62318 264.791979,304.357871 264.844946,304.092089 C265.141791,302.602737 265.438163,301.113291 265.734441,299.623844 C265.793073,299.328951 265.979923,299.136625 266.245327,299.099897 C266.510416,299.063232 266.740256,299.195824 266.873572,299.471425 C267.270403,300.291555 267.669154,301.110773 268.055914,301.935624 C268.125121,302.083165 268.206288,302.125558 268.363207,302.123481 C269.039542,302.114354 269.716128,302.117942 270.392589,302.120428 C270.670235,302.121466 270.887298,302.277977 270.969062,302.524529 C271.049316,302.766486 270.971643,303.041835 270.756878,303.178928 C270.65601,303.243288 270.524708,303.291188 270.406625,303.292447 C269.530947,303.301763 268.655142,303.299969 267.779401,303.295972 C267.524729,303.294776 267.346031,303.164167 267.236225,302.934169 C267.040028,302.523081 266.841156,302.113252 266.642913,301.70314 C266.620663,301.657065 266.595359,301.6125 266.556145,301.538195 C266.477717,301.926277 266.404701,302.283422 266.333417,302.640913 Z" id="Fill-1"></path>
        </g>
    </g>
</svg>