<?xml version="1.0" encoding="UTF-8" standalone="no"?>
<svg width="222px" height="45px" viewBox="0 0 222 45" version="1.1" xmlns="http://www.w3.org/2000/svg" xmlns:xlink="http://www.w3.org/1999/xlink">
    <!-- Generator: Sketch 42 (36781) - http://www.bohemiancoding.com/sketch -->
    <title>Logo</title>
    <desc>Created with Sketch.</desc>
    <defs></defs>
    <g id="Page-1" stroke="none" stroke-width="1" fill="none" fill-rule="evenodd">
        <g id="iPhone-SE" transform="translate(-76.000000, -25.000000)" fill="#FFFFFF">
            <g id="Logo" transform="translate(76.000000, 25.000000)">
                <g id="Group-3">
                    <g id="Group-4">
                        <path d="M123.955,30 L126.669,30 L126.669,18.937 L126.738,18.937 L131.591,30 L132.281,30 L137.134,18.937 L137.18,18.937 L137.18,30 L139.894,30 L139.894,13.9 L136.766,13.9 L131.982,25.124 L131.936,25.124 L127.106,13.9 L123.955,13.9 L123.955,30 Z M148.427,27.976 C150.198,27.976 151.463,26.55 151.463,23.905 C151.463,21.26 150.198,19.834 148.427,19.834 C146.656,19.834 145.368,21.214 145.368,23.905 C145.368,26.619 146.633,27.976 148.427,27.976 Z M148.427,30.345 C145.253,30.345 142.769,28.068 142.769,23.905 C142.769,19.742 145.414,17.465 148.427,17.465 C151.417,17.465 154.039,19.742 154.039,23.905 C154.039,28.068 151.578,30.345 148.427,30.345 Z M156.684,30 L159.237,30 L159.237,22.111 C159.237,20.892 159.927,19.88 161.514,19.88 C163.032,19.88 163.745,20.869 163.745,22.272 L163.745,30 L166.183,30 L166.183,22.111 C166.183,20.8 166.965,19.88 168.46,19.88 C170.07,19.88 170.714,20.869 170.714,22.272 L170.714,30 L173.129,30 L173.129,21.674 C173.129,19.167 171.404,17.465 168.575,17.465 C167.08,17.465 165.884,18.247 165.309,19.144 L165.263,19.144 C164.711,18.224 163.561,17.465 162.135,17.465 C160.824,17.465 159.674,18.132 159.122,18.983 L159.076,18.983 L159.076,17.81 L156.684,17.81 L156.684,30 Z M184.56,25.952 L186.446,27.493 C185.503,29.011 183.962,30.345 181.386,30.345 C178.074,30.345 175.659,27.861 175.659,23.905 C175.659,19.949 178.074,17.465 181.271,17.465 C184.445,17.465 186.814,19.903 186.814,23.905 L186.814,24.687 L178.304,24.687 C178.373,26.665 179.408,28.022 181.34,28.022 C183.203,28.022 184.031,26.78 184.56,25.952 Z M178.327,22.709 L184.261,22.709 C184.169,21.076 183.226,19.788 181.271,19.788 C179.385,19.788 178.419,21.306 178.327,22.709 Z M189.459,30 L192.081,30 L192.081,22.433 C192.081,20.869 193.093,19.88 194.703,19.88 C196.428,19.88 197.072,20.915 197.072,22.709 L197.072,30 L199.671,30 L199.671,22.019 C199.671,19.144 197.992,17.465 195.324,17.465 C193.944,17.465 192.679,18.155 192.035,18.983 L191.989,18.983 L191.989,17.81 L189.459,17.81 L189.459,30 Z M203.581,25.929 C203.581,28.62 204.478,30 207.537,30 L208.71,30 L208.71,27.47 L207.744,27.47 C206.41,27.47 206.157,26.918 206.157,25.653 L206.157,20.064 L209.193,20.064 L209.193,17.81 L206.134,17.81 L206.134,14.82 L203.65,14.82 L203.65,17.81 L201.741,17.81 L201.741,20.064 L203.581,20.064 L203.581,25.929 Z M210.803,25.929 C211.102,28.137 212.643,30.345 216.231,30.345 C219.681,30.345 221.084,28.321 221.084,26.619 C221.084,24.848 220.325,23.721 217.243,22.847 C214.161,21.973 213.655,21.766 213.655,20.961 C213.655,20.294 214.368,19.65 215.748,19.65 C217.427,19.65 218.14,20.524 218.531,21.674 L220.739,21.03 C220.187,18.983 218.669,17.465 215.748,17.465 C212.827,17.465 211.263,19.236 211.263,21.076 C211.263,22.916 212.597,23.859 215.357,24.641 C217.956,25.377 218.715,25.607 218.715,26.573 C218.715,27.516 217.795,28.137 216.139,28.137 C214.414,28.137 213.402,27.148 213.195,25.354 L210.803,25.929 Z" id="Moments"></path>
                        <path d="M9.407,25.331 L9.407,22.571 C9.407,21.168 8.418,19.834 6.624,19.834 C4.669,19.834 3.542,21.237 3.542,23.905 C3.542,26.573 4.669,27.976 6.624,27.976 C8.349,27.976 9.407,26.734 9.407,25.331 Z M9.591,30 L9.591,28.827 L9.545,28.827 C9.384,29.034 8.303,30.345 6.21,30.345 C2.99,30.345 0.92,27.815 0.92,23.905 C0.92,19.811 3.45,17.465 6.187,17.465 C8.188,17.465 9.154,18.73 9.361,18.983 L9.407,18.983 L9.407,13.21 L12.029,13.21 L12.029,30 L9.591,30 Z M23.575,25.952 L25.461,27.493 C24.518,29.011 22.977,30.345 20.401,30.345 C17.089,30.345 14.674,27.861 14.674,23.905 C14.674,19.949 17.089,17.465 20.286,17.465 C23.46,17.465 25.829,19.903 25.829,23.905 L25.829,24.687 L17.319,24.687 C17.388,26.665 18.423,28.022 20.355,28.022 C22.218,28.022 23.046,26.78 23.575,25.952 Z M17.342,22.709 L23.276,22.709 C23.184,21.076 22.241,19.788 20.286,19.788 C18.4,19.788 17.434,21.306 17.342,22.709 Z M28.52,30 L31.142,30 L31.142,17.81 L28.52,17.81 L28.52,30 Z M28.474,15.809 L31.188,15.809 L31.188,13.21 L28.474,13.21 L28.474,15.809 Z M34.638,30 L37.26,30 L37.26,22.433 C37.26,20.869 38.272,19.88 39.882,19.88 C41.607,19.88 42.251,20.915 42.251,22.709 L42.251,30 L44.85,30 L44.85,22.019 C44.85,19.144 43.171,17.465 40.503,17.465 C39.123,17.465 37.858,18.155 37.214,18.983 L37.168,18.983 L37.168,17.81 L34.638,17.81 L34.638,30 Z M56.281,25.952 L58.167,27.493 C57.224,29.011 55.683,30.345 53.107,30.345 C49.795,30.345 47.38,27.861 47.38,23.905 C47.38,19.949 49.795,17.465 52.992,17.465 C56.166,17.465 58.535,19.903 58.535,23.905 L58.535,24.687 L50.025,24.687 C50.094,26.665 51.129,28.022 53.061,28.022 C54.924,28.022 55.752,26.78 56.281,25.952 Z M50.048,22.709 L55.982,22.709 C55.89,21.076 54.947,19.788 52.992,19.788 C51.106,19.788 50.14,21.306 50.048,22.709 Z" id="deine"></path>
                        <g id="Logo_Standard_RGB_opak_W" transform="translate(69.000000, 0.000000)">
                            <path d="M11.5647486,20.0895767 C10.8639451,19.8481688 10.0451215,20.0976847 9.56595978,20.8020311 C9.16988424,21.4600836 9.0377017,22.1251979 9.00323983,23.0183813 C8.93832876,24.5586323 9.85510909,24.8868739 11.1861401,24.9946313 C12.0854534,25.0670799 12.7060032,24.4019655 12.9203278,23.2608355 C13.0317388,22.6692159 13.0244215,21.7776018 12.910178,21.2984475 C12.6604475,20.4374344 12.1706639,20.2980298 11.5647486,20.0895767" id="Fill-1"></path>
                            <path d="M39.2898957,27.0456506 C37.3711145,28.0161023 35.355601,27.6042422 34.0110723,26.4314022 C33.3541622,25.7700985 33.2464259,25.502946 32.9641619,24.6660705 C32.8080594,24.2031073 32.879713,23.8312189 33.1896148,23.63895 C33.5622136,23.4342849 33.8795367,23.3902654 34.2989662,23.2842646 C34.7324705,23.1747219 35.0068015,23.4355498 35.1009748,23.8049084 C35.4802271,25.2924622 36.5545193,25.5408938 37.7004652,25.3554555 C38.3059382,25.2572972 38.6232613,24.9529559 38.6480842,24.4522979 C38.6731629,23.8542405 38.4446391,23.6285776 37.7600913,23.4421274 C36.7689684,23.1398099 36.0977276,23.1172943 35.2192032,22.7064461 C34.4908955,22.3656748 33.6568987,21.8184675 33.382056,21.1042899 C33.0158549,20.0880478 33.0836699,19.2868432 33.8078831,18.4608461 C34.5343995,17.5847579 35.3184947,17.220965 36.4419208,17.220965 C37.3984965,17.220965 37.5210753,17.2814285 38.1577688,17.4630719 C39.1578484,17.7755088 39.5255849,18.1982473 40.1018846,18.9098951 C40.5090307,19.4128299 40.6316095,19.8922372 40.3086565,20.2669084 C39.9964515,20.5644192 39.7164906,20.6689021 39.5217463,20.7490985 C39.1987933,20.8922882 38.6355448,20.9671719 38.3361351,20.2130226 C37.9840088,19.325044 36.6978266,19.0204497 35.8832786,19.5466592 C35.5784949,19.7384221 35.3379435,20.0341619 35.4193215,20.30941 C35.5395972,20.6691551 35.7489281,20.8391613 36.3372554,21.0144801 C37.2357404,21.2667065 37.7224731,21.3562633 38.5830841,21.6236688 C39.4360179,21.8887974 40.2894635,22.1822604 40.755212,23.0446875 C41.5050158,24.4318061 40.814838,26.2740453 39.2898957,27.0456506 Z M31.1326446,26.5315844 C31.1295737,27.2601822 31.0533138,27.3699778 29.9373089,27.4286704 C29.7092969,27.4420786 29.4257533,27.4484032 29.1990208,27.4385368 C28.438469,27.4484032 28.2936263,27.2670128 28.3151224,26.5174172 C28.4075044,23.3224654 28.3263823,17.5167048 28.3233114,17.1807403 C28.316146,16.3825716 28.2734098,15.5849088 28.2577995,14.78674 C28.2452602,14.1608543 28.3599059,14.0540945 28.9817569,14.0396743 C29.4720722,14.02829 29.9626435,14.0060273 30.4529589,13.9956549 C30.9079593,13.9860414 31.1362272,14.2248596 31.123176,14.6627772 C31.0893965,15.7999463 31.0320736,16.9462229 31.033609,18.082886 C31.0359122,19.8198833 31.0699477,21.5475202 31.0996327,23.2845176 C31.1183138,24.3667888 31.1375068,25.4490601 31.1326446,26.5315844 Z M26.3231522,18.2273406 C26.2985852,19.4209255 26.2676206,20.6145103 26.2566167,21.8083481 C26.2415183,23.4785573 26.2512427,25.1492725 26.2223253,26.8192287 C26.2195104,26.9803804 26.1348056,27.2470269 25.8359077,27.3044546 C25.3202576,27.4076726 24.8097257,27.4843272 24.2871662,27.4410667 C23.9153351,27.4043838 23.9828942,27.1008014 23.7937799,26.9586236 C23.6543113,26.8465511 23.4874607,26.8920885 23.3523425,26.9922707 C22.3855307,27.7595752 21.3404116,27.6540803 20.2057256,27.3932524 C19.5984613,27.2328597 19.1147995,27.0375551 18.6866692,26.4764336 C18.0988537,25.6597969 17.8948968,24.8368356 17.9033417,23.8489278 C17.9184402,22.0671521 17.9353299,20.2853764 17.9401921,18.5036006 C17.9430071,17.5966482 18.0724954,17.4557354 18.974819,17.4865996 C19.3284808,17.4984899 19.6816307,17.5369437 20.0347806,17.5397265 C20.4007258,17.5425093 20.5923992,17.7003722 20.5972614,18.065683 C20.603659,18.5731716 20.6164543,19.0806602 20.6131275,19.5878958 C20.6034031,20.9972771 20.5483834,22.4076704 20.5880488,23.8155338 C20.6105685,24.6187622 21.0389547,24.9428365 21.8540144,24.9737007 C23.106673,25.0212619 23.6120868,24.5514681 23.6456105,23.29489 C23.6576381,22.8435641 23.6476577,22.3914793 23.6476577,21.9399005 C23.6494491,21.8126489 23.5711419,19.3270679 23.565512,18.0206516 C23.5639766,17.6553408 23.6947444,17.5055735 24.0972841,17.5083563 C24.6065365,17.514428 25.1229543,17.4929242 25.6357894,17.4946951 C26.1202189,17.496466 26.3326207,17.7610887 26.3231522,18.2273406 Z M16.1398953,24.6266048 C15.8706825,25.3716466 15.4996192,25.8105762 15.0272172,26.400538 C14.1840078,27.3937584 12.443337,27.7664058 11.2231784,27.5817265 C10.779182,27.4929287 10.3543785,27.4064077 9.9500474,27.2900344 C9.67929914,27.2156567 9.5569762,27.3978062 9.55467305,27.5275877 C9.5436691,28.1142607 9.55032265,29.0659915 9.54955493,29.1550423 C9.54955493,29.6847936 9.50246828,30.1988598 9.51884624,30.7281052 C9.53240925,31.1728534 9.38551935,31.4594858 8.89162129,31.4594858 C8.35729011,31.4592328 7.82193532,31.4660634 7.28888367,31.4357052 C6.91219043,31.4142014 6.80854861,31.1227623 6.80854861,30.8062776 C6.80880452,29.2066513 6.83413918,27.6070251 6.82185571,26.0076517 C6.80650137,24.0037549 6.76402101,21.999858 6.73126508,19.9959611 C6.72128476,19.3870254 6.69697371,18.7783427 6.69287922,18.169407 C6.69083197,17.8195283 6.83158013,17.6055027 7.236423,17.5708437 C7.7318565,17.5336548 8.21577424,17.513922 8.7048101,17.4762272 C9.0617986,17.4577592 9.22992867,17.6141042 9.24170033,17.9394433 C9.25296018,18.1623234 9.45231075,18.3029833 9.67674008,18.1038838 C10.5601267,17.3208942 11.6377457,17.117241 12.7381404,17.289271 C13.3203259,17.3803457 14.0202281,17.7479334 14.5965278,18.1162801 C15.6552098,18.807942 16.2478875,19.8036923 16.4641279,21.0706429 C16.6675729,22.2622038 16.6171595,23.0656852 16.1398953,24.6266048 Z M41.0297988,6.43974179 C37.5366856,1.63099648 29.7932339,0 23.4035237,0 C17.3574948,0 12.2030415,3.28096685 8.33630584,7.14278804 C4.50565291,10.9689383 0.643011756,16.2763177 0.0649207021,22.0889088 C-0.468386848,27.4504271 2.36704869,33.1448741 5.5226223,37.547072 C9.23248773,42.7221401 13.9923344,44.7394452 20.066257,44.9726976 C25.8776203,45.1950717 34.5620373,44.103187 39.167061,40.066047 C43.8516714,35.958577 46,30.0908351 46,23.9372197 C46,18.1274114 44.9382471,11.820234 41.0297988,6.43974179 L41.0297988,6.43974179 Z" id="Fill-3"></path>
                        </g>
                    </g>
                </g>
            </g>
        </g>
    </g>
</svg>